<mxfile host="app.diagrams.net" modified="2023-11-25T07:53:49.483Z" agent="Mozilla/5.0 (Windows NT 10.0; Win64; x64) AppleWebKit/537.36 (KHTML, like Gecko) Chrome/97.0.4692.99 Safari/537.36" etag="2mB6mXwSCB4PPYq9d8Th" version="22.1.3" type="github">
  <diagram name="第 1 页" id="v0ZZsLt1QzAVdskHF9LE">
    <mxGraphModel dx="1114" dy="595" grid="1" gridSize="10" guides="1" tooltips="1" connect="1" arrows="1" fold="1" page="1" pageScale="1" pageWidth="827" pageHeight="1169" math="0" shadow="0">
      <root>
        <mxCell id="0" />
        <mxCell id="1" parent="0" />
        <mxCell id="qKF-KL9unNlibL_xfOOc-2" value="任务流程监控" style="rounded=0;whiteSpace=wrap;html=1;" vertex="1" parent="1">
          <mxGeometry x="220" y="280" width="114" height="50" as="geometry" />
        </mxCell>
      </root>
    </mxGraphModel>
  </diagram>
</mxfile>
